<?xml version="1.0" encoding="UTF-8" standalone="no"?>
<!-- Created with Inkscape (http://www.inkscape.org/) -->

<svg
   xmlns:osb="http://www.openswatchbook.org/uri/2009/osb"
   xmlns:dc="http://purl.org/dc/elements/1.1/"
   xmlns:cc="http://creativecommons.org/ns#"
   xmlns:rdf="http://www.w3.org/1999/02/22-rdf-syntax-ns#"
   xmlns:svg="http://www.w3.org/2000/svg"
   xmlns="http://www.w3.org/2000/svg"
   xmlns:sodipodi="http://sodipodi.sourceforge.net/DTD/sodipodi-0.dtd"
   xmlns:inkscape="http://www.inkscape.org/namespaces/inkscape"
   width="417.436"
   height="160.89101"
   viewBox="0 0 110.44661 42.569078"
   version="1.1"
   id="svg8"
   inkscape:version="0.92.0 r15299"
   sodipodi:docname="sige.svg">
  <defs
     id="defs2">
    <linearGradient
       id="linearGradient4536"
       osb:paint="solid">
      <stop
         style="stop-color:#ffffff;stop-opacity:1;"
         offset="0"
         id="stop4534" />
    </linearGradient>
  </defs>
  <sodipodi:namedview
     id="base"
     pagecolor="#cccccc"
     bordercolor="#666666"
     borderopacity="1.0"
     inkscape:pageopacity="0"
     inkscape:pageshadow="2"
     inkscape:zoom="3.1310189"
     inkscape:cx="141.46782"
     inkscape:cy="76.945503"
     inkscape:document-units="px"
     inkscape:current-layer="layer1"
     showgrid="false"
     inkscape:window-width="1920"
     inkscape:window-height="1051"
     inkscape:window-x="-9"
     inkscape:window-y="-9"
     inkscape:window-maximized="1"
     units="px"
     inkscape:pagecheckerboard="true"
     inkscape:showpageshadow="false"
     borderlayer="false" />
  <metadata
     id="metadata5">
    <rdf:RDF>
      <cc:Work
         rdf:about="">
        <dc:format>image/svg+xml</dc:format>
        <dc:type
           rdf:resource="http://purl.org/dc/dcmitype/StillImage" />
        <dc:title></dc:title>
      </cc:Work>
    </rdf:RDF>
  </metadata>
  <g
     inkscape:label="Camada 1"
     inkscape:groupmode="layer"
     id="layer1"
     transform="translate(0,-254.4309)">
    <g
       aria-label="SiGE"
       style="font-style:normal;font-weight:normal;font-size:54.17827606px;line-height:33.86142349px;font-family:sans-serif;letter-spacing:0px;word-spacing:0px;fill:#ffffff;fill-opacity:1;stroke:none;stroke-width:1.3544569"
       id="text4487"
       transform="translate(0,6.0686476)">
      <path
         d="m 24.05725,256.44091 q -0.243803,0.40634 -0.541783,0.62305 -0.270892,0.18963 -0.677229,0.18963 -0.460515,0 -1.083565,-0.46052 -0.62305,-0.46051 -1.57117,-1.0023 -0.921031,-0.56887 -2.248399,-1.02938 -1.300278,-0.46052 -3.169429,-0.46052 -1.760794,0 -3.115251,0.48761 -1.327367,0.46051 -2.2483981,1.27319 -0.8939416,0.81267 -1.3544569,1.92332 -0.4605154,1.08357 -0.4605154,2.35676 0,1.62535 0.785585,2.70891 0.8126742,1.05648 2.1129524,1.81497 1.327368,0.7585 2.979806,1.32737 1.679526,0.54179 3.413231,1.13775 1.760794,0.59596 3.413231,1.35445 1.679527,0.73141 2.979806,1.86915 1.327367,1.13775 2.112952,2.79019 0.812674,1.65243 0.812674,4.06337 0,2.54637 -0.866852,4.79477 -0.866852,2.22131 -2.546379,3.87375 -1.652437,1.65244 -4.09046,2.60056 -2.410933,0.94812 -5.499095,0.94812 -3.7924791,0 -6.8806409,-1.35446 -3.0881617,-1.38155 -5.2823819,-3.71121 l 1.5169918,-2.4922 q 0.2167131,-0.29798 0.5146936,-0.48761 0.3250696,-0.21671 0.7043176,-0.21671 0.3521588,0 0.785585,0.29798 0.4605153,0.27089 1.0293872,0.70432 0.5688719,0.43342 1.3002786,0.94812 0.7314068,0.51469 1.6524375,0.94812 0.9481198,0.43342 2.1400415,0.7314 1.191922,0.2709 2.681825,0.2709 1.869151,0 3.331964,-0.5147 1.462813,-0.51469 2.465112,-1.43572 1.029387,-0.94812 1.57117,-2.2484 0.541782,-1.30028 0.541782,-2.89854 0,-1.76079 -0.812674,-2.87145 -0.785585,-1.13774 -2.085863,-1.89624 -1.300279,-0.75849 -2.979806,-1.27319 -1.679526,-0.54178 -3.413231,-1.08356 -1.733705,-0.56887 -3.4132314,-1.30028 -1.6795266,-0.73141 -2.9798052,-1.89624 -1.3002786,-1.16483 -2.1129528,-2.89854 -0.785585,-1.76079 -0.785585,-4.33426 0,-2.05877 0.785585,-3.9821 0.8126742,-1.92333 2.3296659,-3.41323 1.5440809,-1.48991 3.7653902,-2.38385 2.2483983,-0.89394 5.1469363,-0.89394 3.250696,0 5.905432,1.02939 2.681825,1.02938 4.71351,2.9798 z"
         style="font-style:normal;font-variant:normal;font-weight:normal;font-stretch:normal;font-family:Lato;-inkscape-font-specification:Lato;fill:#ffffff;fill-opacity:1;stroke-width:1.3544569"
         id="path4495"
         inkscape:connector-curvature="0" />
      <path
         style="font-style:normal;font-variant:normal;font-weight:normal;font-stretch:normal;font-family:Lato;-inkscape-font-specification:Lato;fill:#ffffff;fill-opacity:1;stroke-width:5.11920738"
         d="m 131.89062,4 c -1.77465,0 -3.44573,0.3428457 -5.01562,1.0253906 -1.50163,0.682545 -2.83379,1.6366233 -3.99414,2.8652344 -1.16036,1.1603529 -2.08111,2.561058 -2.76367,4.199219 -0.68255,1.569902 -1.02344,3.240947 -1.02344,5.015625 0,1.774677 0.34087,3.447675 1.02344,5.017578 1.33724,2.893077 3.65147,5.362493 6.75781,6.859375 3.07872,1.309757 6.67817,1.287874 10.0332,0 1.63815,-0.682545 3.03692,-1.603319 4.19727,-2.763672 1.22861,-1.228611 2.18463,-2.594059 2.86719,-4.095703 0.7508,-1.569903 1.12695,-3.242901 1.12695,-5.017578 0,-1.774678 -0.37614,-3.445723 -1.12695,-5.015625 C 143.2901,10.451683 142.33408,9.0509779 141.10547,7.890625 139.94512,6.6620139 138.54635,5.7079356 136.9082,5.0253906 135.33831,4.3428457 133.66528,4 131.89062,4 Z m -0.58984,2.6699219 c 2.34523,0 4.38863,0.529273 6.6582,1.6640625 0.26479,0.151305 0.37787,0.4930283 0.22657,0.7578125 -0.0757,0.1891316 -0.26523,0.3027343 -0.49219,0.3027343 -0.0757,0 -0.18802,-0.038345 -0.26367,-0.076172 -2.08045,-1.0591365 -3.93498,-1.5136719 -6.12891,-1.5136719 -2.19392,0 -4.27346,0.529471 -6.12695,1.5507813 -0.26479,0.1513049 -0.60651,0.038221 -0.75781,-0.2265626 -0.15131,-0.2647841 -0.0363,-0.6045543 0.22851,-0.7558593 2.04262,-1.0969632 4.31102,-1.703125 6.65625,-1.7031248 z m -0.0176,2.7382812 c 1.97643,-0.00473 3.9514,0.4398249 5.69141,1.3476559 1.66436,0.832179 3.02608,2.042872 4.12305,3.59375 0.18913,0.226958 0.11439,0.604555 -0.15039,0.75586 -0.26479,0.189131 -0.60456,0.114393 -0.75586,-0.150391 -0.98349,-1.399573 -2.23305,-2.49738 -3.7461,-3.253906 -3.17741,-1.626532 -7.2237,-1.626532 -10.36328,0 -1.51305,0.756526 -2.76261,1.892159 -3.74609,3.253906 -0.0756,0.151305 -0.22689,0.263672 -0.41602,0.263672 -0.11348,0 -0.22708,-0.03763 -0.30273,-0.113281 -0.26479,-0.189132 -0.3017,-0.528902 -0.15039,-0.75586 1.09696,-1.550878 2.49651,-2.761571 4.12304,-3.59375 1.74001,-0.8889178 3.71694,-1.3429276 5.69336,-1.3476559 z m 0.0566,2.7089849 c 5.0309,0 9.11524,3.858885 9.11524,8.625 0,1.777836 -1.51298,3.251953 -3.4043,3.251953 -1.89131,0 -3.4043,-1.474117 -3.4043,-3.251953 0,-1.172616 -1.02054,-2.15625 -2.30664,-2.15625 -1.28609,0 -2.30859,0.945808 -2.30859,2.15625 0,1.891315 0.71833,3.668266 2.08008,4.992187 1.05914,1.02131 2.04287,1.626879 3.59375,2.042969 0.30261,0.07565 0.45456,0.37903 0.3789,0.68164 -0.11347,0.113479 -0.3414,0.302735 -0.56836,0.302735 -0.0378,0 -0.11256,-0.0012 -0.15039,-0.03906 -1.74001,-0.491742 -2.9126,-1.134025 -4.12304,-2.30664 -1.55088,-1.550879 -2.38282,-3.593901 -2.38281,-5.75 0,-1.777837 1.51298,-3.251954 3.40429,-3.251954 1.89132,0 3.4043,1.436291 3.4043,3.251954 0,1.172615 1.02054,2.15625 2.30664,2.15625 1.28609,0 2.30859,-0.945808 2.30859,-2.15625 0,-4.160894 -3.59457,-7.527344 -7.98242,-7.527344 -3.13958,0 -6.01469,1.739396 -7.30078,4.46289 -0.41609,0.907832 -0.64258,1.928948 -0.64258,3.101563 0,0.870005 0.0769,2.232646 0.75781,3.972656 0.11348,0.302611 -0.0379,0.605271 -0.30273,0.71875 -0.30261,0.113479 -0.60527,-0.03795 -0.71875,-0.302734 -0.52957,-1.4374 -0.79492,-2.874383 -0.79492,-4.349609 0,-1.323921 0.26412,-2.535331 0.75586,-3.556641 1.47522,-3.063931 4.72948,-5.06836 8.28515,-5.068359 z m -0.0391,2.572265 c 3.4422,0 6.24219,2.686391 6.24219,5.939453 0,0.302611 -0.22792,0.566406 -0.56836,0.566406 -0.30261,0 -0.56641,-0.225969 -0.56641,-0.566406 0.0378,-2.647841 -2.27045,-4.804687 -5.10742,-4.804687 -2.83697,0 -5.14453,2.156129 -5.14453,4.841797 0,1.588704 0.34061,3.063712 1.02148,4.236328 0.7187,1.286094 1.17297,1.815542 2.04297,2.685547 0.22696,0.226958 0.22696,0.567964 0,0.794921 -0.11348,0.07565 -0.26471,0.150391 -0.41601,0.150391 -0.15131,0 -0.30326,-0.03691 -0.37891,-0.150391 -0.94566,-0.945657 -1.47394,-1.588188 -2.23047,-2.912109 -0.75652,-1.361747 -1.17383,-3.026851 -1.17383,-4.804687 0.0378,-3.290889 2.83711,-5.976563 6.2793,-5.976563 z m 0,5.410156 c 0.34044,0 0.56836,0.22597 0.56836,0.566407 0,1.550878 0.7945,3.025762 2.15625,3.933593 0.79435,0.529569 1.70187,0.794922 2.79883,0.794922 0.26478,0 0.71868,-0.03763 1.13476,-0.113281 0.30262,-0.03783 0.56693,0.150515 0.64258,0.453125 0.0378,0.30261 -0.15051,0.568878 -0.45312,0.644531 -0.7187,0.07565 -1.24909,0.113281 -1.40039,0.113282 -1.32392,0 -2.45864,-0.341328 -3.4043,-0.984376 -1.62653,-1.096962 -2.60937,-2.912655 -2.60937,-4.841796 0,-0.302611 0.22596,-0.566407 0.5664,-0.566407 z m -8.3164,29.564453 V 153.37891 h 18.2246 V 49.664062 Z"
         transform="matrix(0.26458331,0,0,0.26458331,0,248.61014)"
         id="path4497"
         inkscape:connector-curvature="0" />
      <path
         d="m 77.424544,270.52726 v 14.89903 q -2.925627,2.11295 -6.257591,3.16943 -3.304875,1.02939 -7.259889,1.02939 -4.686421,0 -8.451811,-1.43573 -3.765391,-1.46281 -6.447215,-4.06337 -2.654736,-2.62764 -4.09046,-6.28468 -1.435724,-3.65703 -1.435724,-8.04547 0,-4.44262 1.381546,-8.09965 1.408635,-3.65704 3.982103,-6.2576 2.573468,-2.62764 6.257591,-4.06337 3.684123,-1.43572 8.235098,-1.43572 2.302576,0 4.280084,0.35216 1.977507,0.32507 3.657033,0.97521 1.679527,0.62305 3.115251,1.54408 1.435724,0.89394 2.681825,2.03168 l -1.489903,2.38385 q -0.352159,0.54178 -0.921031,0.70432 -0.541782,0.13544 -1.219011,-0.2709 -0.650139,-0.37924 -1.489902,-0.92103 -0.839764,-0.54178 -2.058775,-1.02938 -1.191922,-0.5147 -2.844359,-0.86686 -1.625349,-0.35215 -3.873747,-0.35215 -3.277786,0 -5.932521,1.08356 -2.654736,1.05648 -4.523886,3.06107 -1.869151,1.97751 -2.871449,4.82187 -1.002298,2.81727 -1.002298,6.33886 0,3.65703 1.029387,6.55557 1.056477,2.87145 2.979805,4.90313 1.950418,2.0046 4.71351,3.06108 2.763092,1.05647 6.203413,1.05647 2.708914,0 4.794777,-0.59596 2.112953,-0.62305 4.117549,-1.70661 v -8.53308 h -6.040877 q -0.514694,0 -0.839764,-0.29798 -0.29798,-0.29798 -0.29798,-0.73141 v -2.97981 z"
         style="font-style:normal;font-variant:normal;font-weight:normal;font-stretch:normal;font-family:Lato;-inkscape-font-specification:Lato;fill:#ffffff;fill-opacity:1;stroke-width:1.3544569"
         id="path4499"
         inkscape:connector-curvature="0" />
      <path
         d="m 109.41513,284.9116 -0.0271,4.28008 H 85.468329 v -38.81873 h 23.919711 v 4.28008 H 90.723622 v 12.89443 h 15.115738 v 4.11755 H 90.723622 v 13.24659 z"
         style="font-style:normal;font-variant:normal;font-weight:normal;font-stretch:normal;font-family:Lato;-inkscape-font-specification:Lato;fill:#ffffff;fill-opacity:1;stroke-width:1.3544569"
         id="path4501"
         inkscape:connector-curvature="0" />
    </g>
    <text
       inkscape:export-ydpi="96"
       inkscape:export-xdpi="96"
       id="text4486"
       y="302.61374"
       x="1.5606955"
       style="font-style:normal;font-weight:normal;font-size:54.17827606px;line-height:33.86142349px;font-family:sans-serif;letter-spacing:0px;word-spacing:0px;fill:#ffffff;fill-opacity:1;stroke:none;stroke-width:1.3544569"
       xml:space="preserve"><tspan
         style="font-style:normal;font-variant:normal;font-weight:normal;font-stretch:normal;font-size:6.34999895px;font-family:Lato;-inkscape-font-specification:Lato;fill:#ffffff;stroke-width:1.3544569"
         y="302.61374"
         x="1.5606955"
         id="tspan4484"
         sodipodi:role="line">Sistema de Gerenciamento de Eleições</tspan></text>
    <g
       id="XMLID_8_"
       transform="matrix(0.10931823,0,0,0.10931823,28.774823,247.14883)" />
  </g>
  <style
     id="style4504"
     type="text/css">
	.st0{fill:#333333;}
</style>
</svg>
