<?xml version="1.0" encoding="UTF-8" standalone="no"?>
<!-- Created with Inkscape (http://www.inkscape.org/) -->

<svg
   xmlns:osb="http://www.openswatchbook.org/uri/2009/osb"
   xmlns:dc="http://purl.org/dc/elements/1.1/"
   xmlns:cc="http://creativecommons.org/ns#"
   xmlns:rdf="http://www.w3.org/1999/02/22-rdf-syntax-ns#"
   xmlns:svg="http://www.w3.org/2000/svg"
   xmlns="http://www.w3.org/2000/svg"
   xmlns:sodipodi="http://sodipodi.sourceforge.net/DTD/sodipodi-0.dtd"
   xmlns:inkscape="http://www.inkscape.org/namespaces/inkscape"
   width="27"
   height="27"
   viewBox="0 0 7.14375 7.1437488"
   version="1.1"
   id="svg8"
   inkscape:version="0.92.0 r15299"
   sodipodi:docname="sige.ico.svg"
   inkscape:export-filename="C:\Java\workspace\EleicoesWeb\WebContent\resources\images\sige.ico.png"
   inkscape:export-xdpi="96"
   inkscape:export-ydpi="96">
  <defs
     id="defs2">
    <linearGradient
       id="linearGradient4536"
       osb:paint="solid">
      <stop
         style="stop-color:#ffffff;stop-opacity:1;"
         offset="0"
         id="stop4534" />
    </linearGradient>
  </defs>
  <sodipodi:namedview
     id="base"
     pagecolor="#cccccc"
     bordercolor="#666666"
     borderopacity="1.0"
     inkscape:pageopacity="0"
     inkscape:pageshadow="2"
     inkscape:zoom="33"
     inkscape:cx="3.1041545"
     inkscape:cy="14.212121"
     inkscape:document-units="px"
     inkscape:current-layer="layer1"
     showgrid="false"
     inkscape:window-width="1920"
     inkscape:window-height="1051"
     inkscape:window-x="-9"
     inkscape:window-y="-9"
     inkscape:window-maximized="1"
     units="px"
     inkscape:pagecheckerboard="true"
     inkscape:showpageshadow="false"
     borderlayer="false" />
  <metadata
     id="metadata5">
    <rdf:RDF>
      <cc:Work
         rdf:about="">
        <dc:format>image/svg+xml</dc:format>
        <dc:type
           rdf:resource="http://purl.org/dc/dcmitype/StillImage" />
        <dc:title />
      </cc:Work>
    </rdf:RDF>
  </metadata>
  <g
     inkscape:label="Camada 1"
     inkscape:groupmode="layer"
     id="layer1"
     transform="translate(0,-289.8563)">
    <g
       aria-label="SiGE"
       style="font-style:normal;font-weight:normal;font-size:54.17827606px;line-height:33.86142349px;font-family:sans-serif;letter-spacing:0px;word-spacing:0px;fill:#3097d1;fill-opacity:1;stroke:none;stroke-width:1.3544569"
       id="text4487"
       transform="translate(-0.02775483,-0.32050946)"
       inkscape:export-xdpi="59.060001"
       inkscape:export-ydpi="59.060001">
      <path
         style="font-style:normal;font-variant:normal;font-weight:normal;font-stretch:normal;font-family:Lato;-inkscape-font-specification:Lato;fill:#3097d1;fill-opacity:1;stroke-width:1.35445678"
         d="m 3.5451095,290.31485 c -0.4695428,0 -0.9116827,0.0907 -1.3270494,0.2713 -0.3973062,0.18059 -0.7497735,0.43302 -1.0567827,0.75809 -0.30701193,0.30701 -0.55062701,0.67762 -0.731221,1.11105 -0.18059134,0.41537 -0.27078514,0.8575 -0.27078514,1.32705 0,0.46955 0.0901885,0.9122 0.27078514,1.32757 0.35381139,0.76546 0.966118,1.41882 1.7880037,1.81487 0.814578,0.34654 1.7669324,0.34075 2.6546173,0 0.4334272,-0.18059 0.8035184,-0.42421 1.1105276,-0.73122 0.3250697,-0.32507 0.5780166,-0.68634 0.7586106,-1.08365 0.1986492,-0.41537 0.2981722,-0.85802 0.2981722,-1.32757 0,-0.46955 -0.09952,-0.91168 -0.2981722,-1.32705 -0.180594,-0.43343 -0.4335409,-0.80404 -0.7586106,-1.11105 -0.3070092,-0.32507 -0.6771004,-0.5775 -1.1105276,-0.75809 -0.4153667,-0.18059 -0.8580225,-0.2713 -1.3275679,-0.2713 z m -0.1560618,0.70642 c 0.6205087,0 1.1611582,0.14003 1.7616486,0.44028 0.070059,0.04 0.099978,0.13045 0.059947,0.2005 -0.020029,0.05 -0.070175,0.0801 -0.1302253,0.0801 -0.020029,0 -0.049747,-0.0101 -0.069763,-0.0202 -0.5504524,-0.28023 -1.0411301,-0.40049 -1.6216073,-0.40049 -0.5804747,0 -1.1306862,0.14009 -1.6210887,0.41031 -0.070059,0.04 -0.1604725,0.0101 -0.2005039,-0.06 -0.040034,-0.0701 -0.0096,-0.15995 0.06046,-0.19999 0.5404432,-0.29023 1.1406239,-0.45061 1.7611327,-0.45061 z m -0.00466,0.7245 c 0.5229304,-10e-4 1.0454745,0.11637 1.5058521,0.35657 0.4403619,0.22018 0.8006503,0.54051 1.0908902,0.95084 0.050041,0.06 0.030266,0.15996 -0.039791,0.19999 -0.070059,0.05 -0.1599565,0.0303 -0.1999879,-0.0398 -0.2602151,-0.3703 -0.5908278,-0.66076 -0.9911556,-0.86093 -0.8406896,-0.43035 -1.9112704,-0.43035 -2.7419509,0 -0.4003278,0.20017 -0.7309405,0.50063 -0.9911529,0.86093 -0.0200025,0.04 -0.0600313,0.0698 -0.11007192,0.0698 -0.0300249,0 -0.0600816,-0.01 -0.0800973,-0.03 -0.070059,-0.05 -0.0798248,-0.13994 -0.0397907,-0.19999 0.29023732,-0.41033 0.66053492,-0.73066 1.09088762,-0.95084 0.4603776,-0.2352 0.9834402,-0.35532 1.5063683,-0.35657 z m 0.014975,0.71675 c 1.3310922,0 2.4117404,1.021 2.4117404,2.28203 0,0.47039 -0.4003093,0.86042 -0.900721,0.86042 -0.500409,0 -0.9007209,-0.39003 -0.9007209,-0.86042 0,-0.31025 -0.2700179,-0.5705 -0.6102985,-0.5705 -0.3402779,0 -0.6108144,0.25024 -0.6108144,0.5705 0,0.50041 0.1900582,0.97057 0.5503545,1.32085 0.2802307,0.27022 0.5405093,0.43045 0.9508462,0.54054 0.080066,0.02 0.120269,0.10028 0.1002507,0.18035 -0.030022,0.03 -0.090329,0.0801 -0.1503786,0.0801 -0.010001,0 -0.029781,-3.2e-4 -0.039791,-0.0103 -0.4603776,-0.1301 -0.7706253,-0.30004 -1.0908876,-0.6103 -0.4103369,-0.41033 -0.6304544,-0.95088 -0.6304517,-1.52135 0,-0.47039 0.4003092,-0.86041 0.9007183,-0.86041 0.5004117,0 0.900721,0.38002 0.900721,0.86041 0,0.31025 0.2700178,0.57051 0.6102984,0.57051 0.340278,0 0.6108144,-0.25025 0.6108144,-0.57051 0,-1.1009 -0.9510632,-1.99161 -2.1120151,-1.99161 -0.8306805,0 -1.5913866,0.46022 -1.9316646,1.18081 -0.1100904,0.24019 -0.1700159,0.51036 -0.1700159,0.82062 0,0.23019 0.020346,0.59072 0.2005039,1.0511 0.030025,0.0801 -0.010028,0.16014 -0.080097,0.19017 -0.080066,0.03 -0.1601444,-0.01 -0.1901693,-0.0801 -0.1401154,-0.38031 -0.2103225,-0.76052 -0.2103225,-1.15084 0,-0.35028 0.069882,-0.6708 0.1999879,-0.94102 0.3903186,-0.81067 1.2513415,-1.34101 2.1921124,-1.34101 z m -0.010345,0.68058 c 0.9107487,0 1.6515793,0.71077 1.6515793,1.57148 0,0.0801 -0.060304,0.14986 -0.1503786,0.14986 -0.080065,0 -0.1498626,-0.0598 -0.1498626,-0.14986 0.010001,-0.70057 -0.6007232,-1.27124 -1.3513381,-1.27124 -0.7506149,0 -1.3611568,0.57048 -1.3611568,1.28106 0,0.42034 0.09012,0.81061 0.2702666,1.12086 0.190156,0.34028 0.3103483,0.48036 0.5405358,0.71055 0.06005,0.06 0.06005,0.15028 0,0.21032 -0.030025,0.02 -0.070038,0.0398 -0.1100694,0.0398 -0.040034,0 -0.080237,-0.01 -0.1002532,-0.0398 -0.2502059,-0.2502 -0.3899799,-0.4202 -0.5901451,-0.77049 -0.2001626,-0.3603 -0.3105759,-0.80085 -0.3105759,-1.27124 0.010001,-0.87071 0.750652,-1.5813 1.661398,-1.5813 z m 0,1.43144 c 0.090075,0 0.1503786,0.0598 0.1503786,0.14986 0,0.41034 0.2102114,0.80057 0.5705077,1.04076 0.2101718,0.14012 0.4502864,0.21033 0.7405237,0.21033 0.070056,0 0.1901508,-0.01 0.3002386,-0.03 0.080068,-0.01 0.1500002,0.0398 0.1700159,0.11989 0.010001,0.0801 -0.039822,0.15052 -0.1198879,0.17053 -0.1901561,0.02 -0.3304884,0.03 -0.3705199,0.03 -0.3502871,0 -0.6505151,-0.0903 -0.9007209,-0.26045 -0.4303527,-0.29024 -0.6903958,-0.77064 -0.6903958,-1.28106 0,-0.0801 0.059785,-0.14986 0.14986,-0.14986 z"
         id="path4497"
         inkscape:connector-curvature="0"
         sodipodi:nodetypes="scccscccscscccssccscscccsscccccccscccssssssscccscccssssscscccsssssscsscccscccssscscccccss" />
    </g>
    <g
       id="XMLID_8_"
       transform="matrix(0.10931823,0,0,0.10931823,28.774823,247.14883)" />
  </g>
  <style
     id="style4504"
     type="text/css">
	.st0{fill:#333333;}
</style>
</svg>
